<?xml version="1.0" standalone="no"?>
<!DOCTYPE svg PUBLIC "-//W3C//DTD SVG 20010904//EN"
 "http://www.w3.org/TR/2001/REC-SVG-20010904/DTD/svg10.dtd">
<svg version="1.0" xmlns="http://www.w3.org/2000/svg"
 width="700.000000pt" height="684.000000pt" viewBox="0 0 700.000000 684.000000"
 preserveAspectRatio="xMidYMid meet">

<g transform="translate(0.000000,684.000000) scale(0.100000,-0.100000)"
fill="#000000" stroke="none">
<path d="M3812 5971 c-113 -28 -233 -93 -311 -167 l-68 -64 -20 23 c-10 12
-31 39 -47 59 -19 27 -52 50 -114 80 -86 43 -88 43 -198 43 l-111 0 -108 -54
c-124 -61 -204 -134 -268 -242 -59 -100 -78 -174 -84 -325 l-6 -131 -49 -12
c-27 -6 -62 -11 -76 -11 -61 -1 -232 -103 -311 -185 -92 -95 -136 -210 -147
-382 -6 -97 -1 -120 61 -288 47 -128 53 -198 30 -352 -22 -149 -13 -214 48
-340 48 -101 50 -129 22 -287 -21 -119 -17 -222 13 -289 12 -26 46 -86 77
-134 48 -72 60 -100 76 -177 11 -50 33 -119 50 -154 36 -73 76 -107 189 -160
41 -19 77 -36 79 -38 4 -4 -65 -106 -159 -234 -184 -250 -309 -515 -365 -770
-26 -118 -31 -327 -11 -434 41 -217 126 -377 280 -532 114 -114 267 -212 419
-269 26 -10 50 -21 52 -26 3 -4 -4 -31 -15 -59 -11 -28 -20 -53 -20 -55 0 -3
61 -5 135 -5 135 0 136 0 145 25 11 29 9 28 118 15 74 -10 87 -9 128 9 79 35
106 138 53 205 -30 39 -63 52 -174 70 -302 51 -502 143 -657 303 -76 79 -122
155 -160 265 -30 88 -32 101 -32 238 0 125 4 159 27 248 59 225 191 471 372
697 108 134 259 255 318 255 35 0 170 42 472 148 176 61 221 81 315 137 30 19
77 39 103 45 44 12 50 11 86 -13 112 -74 272 -313 436 -652 133 -275 163 -361
189 -557 36 -260 27 -408 -38 -598 -20 -58 -36 -116 -36 -130 1 -42 34 -101
109 -193 78 -96 218 -289 309 -429 l57 -88 171 0 c145 0 173 2 178 15 3 9 -1
18 -9 21 -8 4 -15 15 -15 25 0 10 -5 19 -12 19 -6 0 -8 3 -5 7 4 3 -2 13 -14
21 -11 8 -18 20 -15 28 3 8 0 11 -10 7 -8 -3 -14 1 -14 10 0 9 -8 23 -17 33
-13 13 -14 19 -5 22 20 6 13 21 -8 15 -13 -4 -22 1 -27 13 -3 11 -9 21 -12 24
-14 12 -61 80 -61 88 0 5 -9 17 -21 27 -11 11 -51 60 -89 110 -39 49 -96 118
-129 153 l-59 63 15 47 c78 243 89 478 37 772 -30 174 -43 222 -92 347 -50
124 -192 413 -204 413 -4 0 -8 5 -8 10 0 6 -16 34 -35 62 -33 48 -35 52 -18
62 28 16 868 21 1038 6 149 -13 1377 -27 1420 -16 l25 6 0 143 0 142 -541 -3
c-413 -2 -593 1 -764 12 -269 19 -881 21 -1172 4 l-202 -11 -49 45 c-27 25
-72 62 -100 83 -29 20 -52 39 -52 41 0 3 18 35 40 72 55 90 74 159 66 236 -3
32 -15 75 -26 93 -11 19 -20 39 -20 44 0 14 101 179 110 179 4 0 47 -19 96
-41 170 -79 349 -130 407 -115 40 10 82 51 97 95 28 84 -22 158 -122 181 -90
20 -168 50 -297 111 l-124 59 -171 174 c-94 96 -187 183 -206 195 -70 42 -106
27 -241 -99 -106 -99 -266 -219 -334 -251 -49 -23 -84 -24 -133 -4 -49 21
-112 83 -112 112 0 12 18 77 39 145 108 340 176 444 372 571 113 74 168 100
274 131 50 15 106 33 126 41 65 25 309 68 356 62 25 -2 89 -27 146 -55 120
-60 387 -147 478 -157 35 -3 237 -10 449 -15 212 -5 516 -15 675 -22 331 -14
817 -17 888 -5 l47 8 0 144 0 144 -67 -7 c-106 -11 -526 -8 -893 6 -184 7
-436 15 -560 17 -419 8 -543 18 -648 54 -51 17 -99 31 -108 31 -9 0 -78 25
-154 55 -89 35 -153 55 -179 55 -48 0 -51 10 -21 75 54 117 70 326 37 454 -38
142 -126 256 -245 313 -61 29 -77 32 -172 35 -77 2 -125 -2 -178 -16z m261
-289 c13 -12 34 -43 47 -69 48 -96 20 -318 -56 -450 -13 -23 -24 -48 -24 -57
0 -17 -8 -19 -102 -36 -66 -12 -68 -12 -98 13 -36 31 -217 103 -283 112 -39 6
-47 11 -42 24 4 9 12 50 19 91 39 236 227 405 443 397 58 -2 76 -7 96 -25z
m-916 -59 c49 -39 74 -83 90 -157 11 -55 10 -65 -15 -144 l-27 -84 -233 -5
-232 -5 0 23 c2 235 145 415 322 406 47 -3 65 -9 95 -34z m211 -687 c63 -8
115 -16 117 -18 2 -2 -37 -31 -87 -63 -177 -116 -304 -266 -383 -452 -44 -104
-129 -363 -146 -440 -22 -107 19 -217 117 -315 95 -95 220 -148 350 -148 65 0
186 38 247 77 81 53 232 167 280 212 57 53 59 53 131 -38 l48 -61 -12 -48 c-6
-26 -36 -84 -65 -130 -81 -125 -94 -222 -44 -325 28 -57 22 -80 -41 -156 -128
-153 -275 -239 -544 -316 -202 -57 -570 -84 -710 -51 -95 23 -107 37 -133 156
-23 104 -36 133 -125 269 -26 40 -48 83 -48 95 0 11 10 85 22 163 27 173 20
233 -42 367 -46 100 -48 122 -24 277 10 66 13 127 9 167 -7 70 -49 220 -90
327 -24 61 -26 79 -22 145 6 79 27 151 50 175 27 26 110 74 156 90 143 47 739
72 989 41z"/>
<path d="M3519 1651 c-28 -27 -39 -47 -39 -68 0 -101 94 -163 179 -119 41 22
61 59 61 112 0 39 -5 51 -34 80 -29 29 -41 34 -81 34 -42 0 -52 -5 -86 -39z"/>
<path d="M3053 1622 c-18 -2 -46 -16 -62 -31 -103 -96 24 -266 145 -192 62 38
78 124 34 179 -24 29 -76 49 -117 44z"/>
<path d="M3655 1278 c-29 -17 -37 -26 -78 -90 -87 -136 -242 -154 -378 -42
-63 51 -106 63 -163 43 -74 -26 -110 -124 -72 -197 21 -41 112 -111 193 -148
134 -63 275 -68 413 -15 135 52 268 199 287 317 7 42 -22 101 -61 125 -35 21
-110 25 -141 7z"/>
<path d="M6324 61 c-2 -2 -4 -9 -4 -15 0 -6 5 -4 10 4 6 10 10 11 10 3 0 -8
13 -13 31 -13 42 0 33 23 -10 24 -18 1 -35 -1 -37 -3z"/>
<path d="M2520 50 c0 -5 5 -10 10 -10 6 0 10 5 10 10 0 6 -4 10 -10 10 -5 0
-10 -4 -10 -10z"/>
<path d="M5610 50 c0 -6 57 -10 150 -10 93 0 150 4 150 10 0 6 -57 10 -150 10
-93 0 -150 -4 -150 -10z"/>
<path d="M6490 50 c0 -5 14 -10 30 -10 17 0 30 5 30 10 0 6 -13 10 -30 10 -16
0 -30 -4 -30 -10z"/>
<path d="M3960 10 c-10 -7 6 -10 55 -10 49 0 65 3 55 10 -19 13 -91 13 -110 0z"/>
</g>
</svg>
